<?xml version="1.0" encoding="iso-8859-1"?>
<!-- Generator: Adobe Illustrator 19.0.0, SVG Export Plug-In . SVG Version: 6.00 Build 0)  -->
<svg version="1.1" id="Layer_1" xmlns="http://www.w3.org/2000/svg" xmlns:xlink="http://www.w3.org/1999/xlink" x="0px" y="0px"
	 viewBox="0 0 450.072 450.072" style="enable-background:new 0 0 450.072 450.072;" xml:space="preserve">
<g>
	<g>
		<g>
			<path d="M379.536,0h-309c-4.418,0-8,3.582-8,8v434.072c0,4.418,3.582,8,8,8h309c4.418,0,8-3.582,8-8V8
				C387.536,3.582,383.955,0,379.536,0z M371.536,434.072h-293V16h293V434.072z"/>
			<path d="M183.896,294.379c15.28,0,29.457-4.783,41.141-12.912c11.683,8.129,25.86,12.912,41.141,12.912
				c39.824,0,72.223-32.399,72.223-72.223c0-18.468-6.976-35.332-18.42-48.116c11.445-12.784,18.42-29.647,18.42-48.115
				c0-39.824-32.399-72.224-72.223-72.224c-15.28,0-29.457,4.783-41.141,12.912c-11.683-8.129-25.86-12.912-41.141-12.912
				c-39.824,0-72.223,32.399-72.223,72.224c0,18.468,6.976,35.332,18.421,48.115c-11.445,12.784-18.421,29.648-18.421,48.116
				C111.672,261.979,144.072,294.379,183.896,294.379z M225.035,260.421c-9.347-10.044-15.081-23.494-15.081-38.265
				c0-13.281,4.639-25.493,12.368-35.124c0.919-0.58,1.824-1.177,2.714-1.797c0.89,0.619,1.796,1.217,2.714,1.797
				c7.729,9.631,12.368,21.843,12.368,35.124C240.118,236.927,234.384,250.377,225.035,260.421z M183.896,182.147
				c-10.625,0-20.571-2.965-29.056-8.107c8.485-5.143,18.43-8.107,29.056-8.107c10.152,0,19.675,2.718,27.905,7.445
				c0.192,0.22,0.379,0.445,0.574,0.663c-0.195,0.218-0.382,0.442-0.574,0.663C203.571,179.429,194.047,182.147,183.896,182.147z
				 M237.698,174.04c0.195-0.218,0.382-0.442,0.574-0.663c8.23-4.727,17.753-7.445,27.905-7.445c10.625,0,20.571,2.965,29.056,8.107
				c-8.485,5.143-18.43,8.107-29.056,8.107c-10.152,0-19.675-2.718-27.905-7.445C238.08,174.482,237.893,174.258,237.698,174.04z
				 M322.399,222.156c0,31.001-25.221,56.223-56.223,56.223c-10.467,0-20.27-2.884-28.671-7.886
				c11.561-12.81,18.613-29.764,18.613-48.337c0-8.983-1.662-17.583-4.673-25.523c4.758,0.99,9.684,1.515,14.731,1.515
				c15.608,0,30.063-4.993,41.887-13.444C316.971,194.655,322.399,207.781,322.399,222.156z M266.177,69.701
				c31.001,0,56.223,25.222,56.223,56.224c0,14.374-5.429,27.5-14.336,37.451c-11.823-8.45-26.279-13.444-41.887-13.444
				c-5.047,0-9.973,0.525-14.73,1.515c3.01-7.941,4.672-16.54,4.672-25.522c0-18.573-7.052-35.528-18.613-48.338
				C245.907,72.585,255.71,69.701,266.177,69.701z M225.038,87.659c9.346,10.044,15.081,23.495,15.081,38.266
				c0,13.281-4.639,25.492-12.368,35.123c-0.918,0.58-1.824,1.178-2.714,1.797c-0.89-0.619-1.796-1.217-2.714-1.797
				c-7.729-9.631-12.368-21.842-12.368-35.123C209.955,111.154,215.689,97.703,225.038,87.659z M127.672,125.925
				c0-31.002,25.222-56.224,56.223-56.224c10.467,0,20.27,2.884,28.671,7.886c-11.561,12.81-18.613,29.764-18.613,48.338
				c0,8.983,1.662,17.582,4.672,25.522c-4.758-0.99-9.684-1.515-14.73-1.515c-15.608,0-30.063,4.993-41.887,13.444
				C133.101,153.425,127.672,140.299,127.672,125.925z M142.008,184.704c11.824,8.45,26.279,13.444,41.887,13.444
				c5.047,0,9.973-0.525,14.731-1.515c-3.011,7.941-4.673,16.54-4.673,25.523c0,18.573,7.052,35.527,18.613,48.337
				c-8.401,5.002-18.204,7.886-28.671,7.886c-31.001,0-56.223-25.222-56.223-56.223
				C127.672,207.781,133.101,194.655,142.008,184.704z"/>
			<path d="M112.43,400.156h32.303c4.418,0,8-3.582,8-8v-54.5c0-4.418-3.582-8-8-8H112.43c-4.418,0-8,3.582-8,8v54.5
				C104.43,396.574,108.012,400.156,112.43,400.156z M120.43,345.656h16.303v38.5H120.43V345.656z"/>
			<path d="M209.036,329.656h-32.303c-4.418,0-8,3.582-8,8v54.5c0,4.418,3.582,8,8,8h32.303c4.418,0,8-3.582,8-8v-54.5
				C217.036,333.238,213.455,329.656,209.036,329.656z M201.036,384.156h-16.303v-38.5h16.303V384.156z"/>
			<path d="M273.339,329.656h-32.303c-4.418,0-8,3.582-8,8v54.5c0,4.418,3.582,8,8,8h32.303c4.418,0,8-3.582,8-8v-54.5
				C281.339,333.238,277.757,329.656,273.339,329.656z M265.339,384.156h-16.303v-38.5h16.303V384.156z"/>
			<path d="M305.339,329.656c-4.418,0-8,3.582-8,8v54.5c0,4.418,3.582,8,8,8h32.303c4.418,0,8-3.582,8-8v-54.5c0-4.418-3.582-8-8-8
				H305.339z M329.642,384.156h-16.303v-38.5h16.303V384.156z"/>
		</g>
	</g>
</g>
<g>
</g>
<g>
</g>
<g>
</g>
<g>
</g>
<g>
</g>
<g>
</g>
<g>
</g>
<g>
</g>
<g>
</g>
<g>
</g>
<g>
</g>
<g>
</g>
<g>
</g>
<g>
</g>
<g>
</g>
</svg>
