<?xml version="1.0" encoding="iso-8859-1"?>
<!-- Generator: Adobe Illustrator 19.0.0, SVG Export Plug-In . SVG Version: 6.00 Build 0)  -->
<svg version="1.1" id="Layer_1" xmlns="http://www.w3.org/2000/svg" xmlns:xlink="http://www.w3.org/1999/xlink" x="0px" y="0px"
	 viewBox="0 0 512 512" style="enable-background:new 0 0 512 512;" xml:space="preserve">
<g>
	<g>
		<g>
			<path d="M474.453,40.956c-5.655,0-10.24,4.583-10.24,10.24V491.52H266.24V20.48h208.213c5.655,0,10.24-4.583,10.24-10.24
				S480.109,0,474.453,0H37.547c-5.655,0-10.24,4.583-10.24,10.24v382.293c0,5.657,4.585,10.24,10.24,10.24s10.24-4.583,10.24-10.24
				V20.48H245.76v471.04H47.787v-58.024c0-5.657-4.585-10.24-10.24-10.24s-10.24,4.583-10.24,10.24v68.264
				c0,5.657,4.585,10.24,10.24,10.24h436.907c5.655,0,10.24-4.583,10.24-10.24V51.196C484.693,45.539,480.109,40.956,474.453,40.956
				z"/>
			<path d="M166.84,194.145l-95.573,95.573c-3.999,4-3.999,10.483,0,14.482c1.999,2,4.62,3,7.24,3s5.242-0.999,7.24-2.998
				l95.573-95.573c3.999-4,3.999-10.483,0-14.482C177.323,190.149,170.837,190.149,166.84,194.145z"/>
			<path d="M112.226,345.162c1.999,1.999,4.62,2.998,7.24,2.998s5.242-0.999,7.24-2.998l95.573-95.573
				c3.999-4,3.999-10.483,0-14.482c-3.999-3.998-10.483-3.998-14.481,0l-95.573,95.573
				C108.227,334.679,108.227,341.161,112.226,345.162z"/>
			<path d="M399.774,194.145c-3.999-3.998-10.483-3.998-14.481,0l-95.573,95.573c-3.999,4-3.999,10.483,0,14.482
				c1.999,1.999,4.62,2.998,7.24,2.998s5.242-0.999,7.24-2.998l95.573-95.573C403.773,204.628,403.773,198.145,399.774,194.145z"/>
			<path d="M337.92,348.16c2.62,0,5.242-0.999,7.24-2.998l95.573-95.573c3.999-4,3.999-10.483,0-14.482
				c-3.999-3.998-10.483-3.998-14.481,0L330.68,330.68c-3.999,4-3.999,10.483,0,14.482C332.678,347.161,335.3,348.16,337.92,348.16z
				"/>
		</g>
	</g>
</g>
<g>
</g>
<g>
</g>
<g>
</g>
<g>
</g>
<g>
</g>
<g>
</g>
<g>
</g>
<g>
</g>
<g>
</g>
<g>
</g>
<g>
</g>
<g>
</g>
<g>
</g>
<g>
</g>
<g>
</g>
</svg>
