<?xml version="1.0" encoding="iso-8859-1"?>
<!-- Generator: Adobe Illustrator 19.0.0, SVG Export Plug-In . SVG Version: 6.00 Build 0)  -->
<svg version="1.1" id="Capa_1" xmlns="http://www.w3.org/2000/svg" xmlns:xlink="http://www.w3.org/1999/xlink" x="0px" y="0px"
	 viewBox="0 0 56 56" style="enable-background:new 0 0 56 56;" xml:space="preserve">
<g>
	<g>
		<path d="M16.293,17.293l-3,3c-0.391,0.391-0.391,1.023,0,1.414C13.488,21.902,13.744,22,14,22s0.512-0.098,0.707-0.293l3-3
			c0.391-0.391,0.391-1.023,0-1.414S16.684,16.902,16.293,17.293z"/>
		<path d="M16.293,35.293l-3,3c-0.391,0.391-0.391,1.023,0,1.414C13.488,39.902,13.744,40,14,40s0.512-0.098,0.707-0.293l3-3
			c0.391-0.391,0.391-1.023,0-1.414S16.684,34.902,16.293,35.293z"/>
		<path d="M55.788,1.385C55.599,1.142,55.308,1,55,1H1C0.692,1,0.401,1.142,0.212,1.385S-0.045,1.944,0.03,2.243l2,8
			C2.141,10.688,2.541,11,3,11h2v42H3v2h3h44h3.042v-2H51V11h2c0.459,0,0.859-0.313,0.97-0.757l2-8
			C56.045,1.944,55.978,1.627,55.788,1.385z M49,53H7V11h42V53z M52.219,9H50H6H3.781l-1.5-6h51.438L52.219,9z"/>
		<path d="M10,30h36c0.552,0,1-0.448,1-1V14c0-0.552-0.448-1-1-1H10c-0.552,0-1,0.448-1,1v15C9,29.552,9.448,30,10,30z M11,15h34v13
			H11V15z"/>
		<path d="M10,48h36c0.552,0,1-0.448,1-1V32c0-0.552-0.448-1-1-1H10c-0.552,0-1,0.448-1,1v15C9,47.552,9.448,48,10,48z M11,33h34v13
			H11V33z"/>
		<rect x="23" y="49" width="10" height="2"/>
	</g>
</g>
<g>
</g>
<g>
</g>
<g>
</g>
<g>
</g>
<g>
</g>
<g>
</g>
<g>
</g>
<g>
</g>
<g>
</g>
<g>
</g>
<g>
</g>
<g>
</g>
<g>
</g>
<g>
</g>
<g>
</g>
</svg>
